<mxfile host="app.diagrams.net" agent="Mozilla/5.0 (Windows NT 10.0; Win64; x64; rv:144.0) Gecko/20100101 Firefox/144.0" version="28.2.7">
  <diagram name="Page-1" id="EYg3MqegUCzYYS_CXkTB">
    <mxGraphModel dx="2867" dy="628" grid="1" gridSize="10" guides="1" tooltips="1" connect="1" arrows="1" fold="1" page="1" pageScale="1" pageWidth="827" pageHeight="1169" math="0" shadow="0">
      <root>
        <mxCell id="0" />
        <mxCell id="1" parent="0" />
        <mxCell id="wHHLx8FjQf187PXlfKUF-266" value="DB" style="shape=cylinder3;whiteSpace=wrap;html=1;boundedLbl=1;backgroundOutline=1;size=15;strokeColor=#0F8B8D;fontColor=#143642;fillColor=#FAE5C7;" vertex="1" parent="1">
          <mxGeometry x="130" y="430" width="130" height="80" as="geometry" />
        </mxCell>
        <mxCell id="wHHLx8FjQf187PXlfKUF-267" value="" style="html=1;rounded=0;strokeColor=#0F8B8D;fontColor=#143642;fillColor=#FAE5C7;" vertex="1" parent="1">
          <mxGeometry x="190" y="410" width="20" height="20" as="geometry" />
        </mxCell>
        <mxCell id="wHHLx8FjQf187PXlfKUF-268" value="" style="endArrow=none;html=1;rounded=0;align=center;verticalAlign=top;endFill=0;labelBackgroundColor=none;endSize=2;strokeColor=#A8201A;fontColor=#143642;fillColor=#FAE5C7;" edge="1" source="wHHLx8FjQf187PXlfKUF-267" target="wHHLx8FjQf187PXlfKUF-269" parent="1">
          <mxGeometry relative="1" as="geometry" />
        </mxCell>
        <mxCell id="wHHLx8FjQf187PXlfKUF-269" value="" style="ellipse;html=1;fontSize=11;align=center;fillColor=none;points=[];aspect=fixed;resizable=0;verticalAlign=bottom;labelPosition=center;verticalLabelPosition=top;flipH=1;strokeColor=#0F8B8D;fontColor=#143642;" vertex="1" parent="1">
          <mxGeometry x="196" y="380" width="8" height="8" as="geometry" />
        </mxCell>
        <mxCell id="wHHLx8FjQf187PXlfKUF-270" value="3306" style="text;html=1;whiteSpace=wrap;strokeColor=none;fillColor=none;align=center;verticalAlign=middle;rounded=0;fontColor=#143642;" vertex="1" parent="1">
          <mxGeometry x="130" y="405" width="60" height="30" as="geometry" />
        </mxCell>
        <mxCell id="wHHLx8FjQf187PXlfKUF-271" value="NFS" style="shape=cylinder3;whiteSpace=wrap;html=1;boundedLbl=1;backgroundOutline=1;size=15;strokeColor=#0F8B8D;fontColor=#143642;fillColor=#FAE5C7;" vertex="1" parent="1">
          <mxGeometry x="120" y="190" width="130" height="80" as="geometry" />
        </mxCell>
        <mxCell id="wHHLx8FjQf187PXlfKUF-272" value="" style="html=1;rounded=0;strokeColor=#0F8B8D;fontColor=#143642;fillColor=#FAE5C7;" vertex="1" parent="1">
          <mxGeometry x="180" y="170" width="20" height="20" as="geometry" />
        </mxCell>
        <mxCell id="wHHLx8FjQf187PXlfKUF-273" value="" style="endArrow=none;html=1;rounded=0;align=center;verticalAlign=top;endFill=0;labelBackgroundColor=none;endSize=2;strokeColor=#A8201A;fontColor=#143642;fillColor=#FAE5C7;" edge="1" parent="1" source="wHHLx8FjQf187PXlfKUF-272" target="wHHLx8FjQf187PXlfKUF-274">
          <mxGeometry relative="1" as="geometry" />
        </mxCell>
        <mxCell id="wHHLx8FjQf187PXlfKUF-274" value="" style="ellipse;html=1;fontSize=11;align=center;fillColor=none;points=[];aspect=fixed;resizable=0;verticalAlign=bottom;labelPosition=center;verticalLabelPosition=top;flipH=1;strokeColor=#0F8B8D;fontColor=#143642;" vertex="1" parent="1">
          <mxGeometry x="186" y="140" width="8" height="8" as="geometry" />
        </mxCell>
        <mxCell id="wHHLx8FjQf187PXlfKUF-275" value="111" style="text;html=1;whiteSpace=wrap;strokeColor=none;fillColor=none;align=center;verticalAlign=middle;rounded=0;fontColor=#143642;" vertex="1" parent="1">
          <mxGeometry x="120" y="165" width="60" height="30" as="geometry" />
        </mxCell>
        <mxCell id="wHHLx8FjQf187PXlfKUF-276" value="PC" style="verticalAlign=top;align=left;spacingTop=8;spacingLeft=2;spacingRight=12;shape=cube;size=10;direction=south;fontStyle=4;html=1;whiteSpace=wrap;strokeColor=#0F8B8D;fontColor=#143642;fillColor=#FAE5C7;" vertex="1" parent="1">
          <mxGeometry x="-950" y="196.25" width="350" height="220" as="geometry" />
        </mxCell>
        <mxCell id="wHHLx8FjQf187PXlfKUF-277" value="Browser" style="shape=module;align=left;spacingLeft=20;align=center;verticalAlign=top;whiteSpace=wrap;html=1;strokeColor=#0F8B8D;fontColor=#143642;fillColor=#FAE5C7;" vertex="1" parent="1">
          <mxGeometry x="-930" y="236.25" width="290" height="140" as="geometry" />
        </mxCell>
        <mxCell id="wHHLx8FjQf187PXlfKUF-278" value="«static»&lt;br&gt;&lt;b&gt;CSS&lt;/b&gt;" style="html=1;dropTarget=0;whiteSpace=wrap;strokeColor=#0F8B8D;fontColor=#143642;fillColor=#FAE5C7;" vertex="1" parent="1">
          <mxGeometry x="-900" y="276.25" width="120" height="60" as="geometry" />
        </mxCell>
        <mxCell id="wHHLx8FjQf187PXlfKUF-279" value="" style="shape=module;jettyWidth=8;jettyHeight=4;strokeColor=#0F8B8D;fontColor=#143642;fillColor=#FAE5C7;" vertex="1" parent="wHHLx8FjQf187PXlfKUF-278">
          <mxGeometry x="1" width="20" height="20" relative="1" as="geometry">
            <mxPoint x="-27" y="7" as="offset" />
          </mxGeometry>
        </mxCell>
        <mxCell id="wHHLx8FjQf187PXlfKUF-280" value="«static»&lt;br&gt;&lt;b&gt;JS&lt;/b&gt;" style="html=1;dropTarget=0;whiteSpace=wrap;strokeColor=#0F8B8D;fontColor=#143642;fillColor=#FAE5C7;" vertex="1" parent="1">
          <mxGeometry x="-770" y="276.25" width="120" height="60" as="geometry" />
        </mxCell>
        <mxCell id="wHHLx8FjQf187PXlfKUF-281" value="" style="shape=module;jettyWidth=8;jettyHeight=4;strokeColor=#0F8B8D;fontColor=#143642;fillColor=#FAE5C7;" vertex="1" parent="wHHLx8FjQf187PXlfKUF-280">
          <mxGeometry x="1" width="20" height="20" relative="1" as="geometry">
            <mxPoint x="-27" y="7" as="offset" />
          </mxGeometry>
        </mxCell>
        <mxCell id="wHHLx8FjQf187PXlfKUF-282" value="moncompte.dawan.fr" style="verticalAlign=top;align=left;spacingTop=8;spacingLeft=2;spacingRight=12;shape=cube;size=10;direction=south;fontStyle=4;html=1;whiteSpace=wrap;strokeColor=#0F8B8D;fontColor=#143642;fillColor=#FAE5C7;" vertex="1" parent="1">
          <mxGeometry x="-210" y="211.25" width="220" height="190" as="geometry" />
        </mxCell>
        <mxCell id="wHHLx8FjQf187PXlfKUF-283" value="Home" style="shape=module;align=left;spacingLeft=20;align=center;verticalAlign=top;whiteSpace=wrap;html=1;strokeColor=#0F8B8D;fontColor=#143642;fillColor=#FAE5C7;" vertex="1" parent="1">
          <mxGeometry x="-160" y="256.25" width="100" height="32.5" as="geometry" />
        </mxCell>
        <mxCell id="wHHLx8FjQf187PXlfKUF-284" value="module" style="shape=module;align=left;spacingLeft=20;align=center;verticalAlign=top;whiteSpace=wrap;html=1;strokeColor=#0F8B8D;fontColor=#143642;fillColor=#FAE5C7;" vertex="1" parent="1">
          <mxGeometry x="-160" y="353.75" width="100" height="32.5" as="geometry" />
        </mxCell>
        <mxCell id="wHHLx8FjQf187PXlfKUF-286" value="Presence" style="shape=module;align=left;spacingLeft=20;align=center;verticalAlign=top;whiteSpace=wrap;html=1;strokeColor=#0F8B8D;fontColor=#143642;fillColor=#FAE5C7;" vertex="1" parent="1">
          <mxGeometry x="-160" y="305" width="100" height="32.5" as="geometry" />
        </mxCell>
        <mxCell id="wHHLx8FjQf187PXlfKUF-287" value="webserver: nginx x.y" style="verticalAlign=top;align=left;spacingTop=8;spacingLeft=2;spacingRight=12;shape=cube;size=10;direction=south;fontStyle=4;html=1;whiteSpace=wrap;strokeColor=#0F8B8D;fontColor=#143642;fillColor=#FAE5C7;" vertex="1" parent="1">
          <mxGeometry x="-508" y="238.75" width="190" height="135" as="geometry" />
        </mxCell>
        <mxCell id="wHHLx8FjQf187PXlfKUF-288" value="" style="html=1;rounded=0;strokeColor=#0F8B8D;fontColor=#143642;fillColor=#FAE5C7;" vertex="1" parent="1">
          <mxGeometry x="-528" y="286.25" width="20" height="20" as="geometry" />
        </mxCell>
        <mxCell id="wHHLx8FjQf187PXlfKUF-289" value="" style="endArrow=none;html=1;rounded=0;align=center;verticalAlign=top;endFill=0;labelBackgroundColor=none;endSize=2;strokeColor=#A8201A;fontColor=#143642;fillColor=#FAE5C7;" edge="1" source="wHHLx8FjQf187PXlfKUF-290" parent="1">
          <mxGeometry relative="1" as="geometry">
            <mxPoint x="-550.0000000000032" y="296.25" as="targetPoint" />
          </mxGeometry>
        </mxCell>
        <mxCell id="wHHLx8FjQf187PXlfKUF-291" value="80, 443" style="text;html=1;whiteSpace=wrap;strokeColor=none;fillColor=none;align=center;verticalAlign=middle;rounded=0;fontColor=#143642;" vertex="1" parent="1">
          <mxGeometry x="-540" y="256.25" width="60" height="30" as="geometry" />
        </mxCell>
        <mxCell id="wHHLx8FjQf187PXlfKUF-292" value="" style="html=1;rounded=0;strokeColor=#0F8B8D;fontColor=#143642;fillColor=#FAE5C7;" vertex="1" parent="1">
          <mxGeometry x="-640" y="288.75" width="20" height="21.25" as="geometry" />
        </mxCell>
        <mxCell id="wHHLx8FjQf187PXlfKUF-293" value="" style="endArrow=none;html=1;rounded=0;align=center;verticalAlign=top;endFill=0;labelBackgroundColor=none;endSize=2;strokeColor=#A8201A;fontColor=#143642;fillColor=#FAE5C7;" edge="1" source="wHHLx8FjQf187PXlfKUF-292" target="wHHLx8FjQf187PXlfKUF-294" parent="1">
          <mxGeometry relative="1" as="geometry" />
        </mxCell>
        <mxCell id="wHHLx8FjQf187PXlfKUF-294" value="" style="shape=requiredInterface;html=1;fontSize=11;align=center;fillColor=none;points=[];aspect=fixed;resizable=0;verticalAlign=bottom;labelPosition=center;verticalLabelPosition=top;flipH=1;strokeColor=#0F8B8D;fontColor=#143642;" vertex="1" parent="1">
          <mxGeometry x="-560" y="295" width="5" height="10" as="geometry" />
        </mxCell>
        <mxCell id="wHHLx8FjQf187PXlfKUF-295" value="" style="endArrow=none;html=1;rounded=0;align=center;verticalAlign=top;endFill=0;labelBackgroundColor=none;endSize=2;strokeColor=#A8201A;fontColor=#143642;fillColor=#FAE5C7;" edge="1" parent="1" source="wHHLx8FjQf187PXlfKUF-288" target="wHHLx8FjQf187PXlfKUF-290">
          <mxGeometry relative="1" as="geometry">
            <mxPoint x="-528" y="296" as="sourcePoint" />
            <mxPoint x="-550.0000000000032" y="296.25" as="targetPoint" />
          </mxGeometry>
        </mxCell>
        <mxCell id="wHHLx8FjQf187PXlfKUF-290" value="" style="ellipse;html=1;fontSize=11;align=center;fillColor=none;points=[];aspect=fixed;resizable=0;verticalAlign=bottom;labelPosition=center;verticalLabelPosition=top;flipH=1;strokeColor=#0F8B8D;fontColor=#143642;" vertex="1" parent="1">
          <mxGeometry x="-555" y="295" width="8" height="8" as="geometry" />
        </mxCell>
        <mxCell id="wHHLx8FjQf187PXlfKUF-296" value="" style="html=1;rounded=0;strokeColor=#0F8B8D;fontColor=#143642;fillColor=#FAE5C7;" vertex="1" parent="1">
          <mxGeometry x="-230" y="295" width="20" height="20" as="geometry" />
        </mxCell>
        <mxCell id="wHHLx8FjQf187PXlfKUF-297" value="" style="endArrow=none;html=1;rounded=0;align=center;verticalAlign=top;endFill=0;labelBackgroundColor=none;endSize=2;strokeColor=#A8201A;fontColor=#143642;fillColor=#FAE5C7;" edge="1" source="wHHLx8FjQf187PXlfKUF-296" target="wHHLx8FjQf187PXlfKUF-298" parent="1">
          <mxGeometry relative="1" as="geometry" />
        </mxCell>
        <mxCell id="wHHLx8FjQf187PXlfKUF-298" value="" style="ellipse;html=1;fontSize=11;align=center;fillColor=none;points=[];aspect=fixed;resizable=0;verticalAlign=bottom;labelPosition=center;verticalLabelPosition=top;flipH=1;strokeColor=#0F8B8D;fontColor=#143642;" vertex="1" parent="1">
          <mxGeometry x="-260" y="301" width="8" height="8" as="geometry" />
        </mxCell>
        <mxCell id="wHHLx8FjQf187PXlfKUF-299" value="9000" style="text;html=1;whiteSpace=wrap;strokeColor=none;fillColor=none;align=center;verticalAlign=middle;rounded=0;fontColor=#143642;" vertex="1" parent="1">
          <mxGeometry x="-260" y="258.75" width="60" height="30" as="geometry" />
        </mxCell>
        <mxCell id="wHHLx8FjQf187PXlfKUF-300" value="" style="html=1;rounded=0;strokeColor=#0F8B8D;fontColor=#143642;fillColor=#FAE5C7;" vertex="1" parent="1">
          <mxGeometry x="-320" y="288.75" width="20" height="21.25" as="geometry" />
        </mxCell>
        <mxCell id="wHHLx8FjQf187PXlfKUF-301" value="" style="endArrow=none;html=1;rounded=0;align=center;verticalAlign=top;endFill=0;labelBackgroundColor=none;endSize=2;strokeColor=#A8201A;fontColor=#143642;fillColor=#FAE5C7;" edge="1" source="wHHLx8FjQf187PXlfKUF-300" target="wHHLx8FjQf187PXlfKUF-302" parent="1">
          <mxGeometry relative="1" as="geometry" />
        </mxCell>
        <mxCell id="wHHLx8FjQf187PXlfKUF-302" value="" style="shape=requiredInterface;html=1;fontSize=11;align=center;fillColor=none;points=[];aspect=fixed;resizable=0;verticalAlign=bottom;labelPosition=center;verticalLabelPosition=top;flipH=1;strokeColor=#0F8B8D;fontColor=#143642;" vertex="1" parent="1">
          <mxGeometry x="-265" y="298.75" width="5" height="10" as="geometry" />
        </mxCell>
        <mxCell id="wHHLx8FjQf187PXlfKUF-306" value="" style="html=1;rounded=0;strokeColor=#0F8B8D;fontColor=#143642;fillColor=#FAE5C7;" vertex="1" parent="1">
          <mxGeometry x="10" y="280" width="20" height="20" as="geometry" />
        </mxCell>
        <mxCell id="wHHLx8FjQf187PXlfKUF-307" value="" style="endArrow=none;html=1;rounded=0;align=center;verticalAlign=top;endFill=0;labelBackgroundColor=none;endSize=2;strokeColor=#A8201A;fontColor=#143642;fillColor=#FAE5C7;exitX=1;exitY=0.5;exitDx=0;exitDy=0;" edge="1" source="wHHLx8FjQf187PXlfKUF-306" target="wHHLx8FjQf187PXlfKUF-308" parent="1">
          <mxGeometry relative="1" as="geometry">
            <mxPoint x="40" y="271.25" as="sourcePoint" />
          </mxGeometry>
        </mxCell>
        <mxCell id="wHHLx8FjQf187PXlfKUF-308" value="" style="shape=requiredInterface;html=1;fontSize=11;align=center;fillColor=none;points=[];aspect=fixed;resizable=0;verticalAlign=bottom;labelPosition=center;verticalLabelPosition=top;flipH=1;strokeColor=#0F8B8D;fontColor=#143642;" vertex="1" parent="1">
          <mxGeometry x="182.5" y="140" width="5" height="10" as="geometry" />
        </mxCell>
        <mxCell id="wHHLx8FjQf187PXlfKUF-309" value="" style="html=1;rounded=0;strokeColor=#0F8B8D;fontColor=#143642;fillColor=#FAE5C7;" vertex="1" parent="1">
          <mxGeometry x="10" y="337.5" width="20" height="22.5" as="geometry" />
        </mxCell>
        <mxCell id="wHHLx8FjQf187PXlfKUF-310" value="" style="endArrow=none;html=1;rounded=0;align=center;verticalAlign=top;endFill=0;labelBackgroundColor=none;endSize=2;strokeColor=#A8201A;fontColor=#143642;fillColor=#FAE5C7;" edge="1" source="wHHLx8FjQf187PXlfKUF-309" parent="1">
          <mxGeometry relative="1" as="geometry">
            <mxPoint x="190" y="380" as="targetPoint" />
          </mxGeometry>
        </mxCell>
        <mxCell id="wHHLx8FjQf187PXlfKUF-311" value="" style="shape=requiredInterface;html=1;fontSize=11;align=center;fillColor=none;points=[];aspect=fixed;resizable=0;verticalAlign=bottom;labelPosition=center;verticalLabelPosition=top;flipH=1;strokeColor=#0F8B8D;fontColor=#143642;" vertex="1" parent="1">
          <mxGeometry x="-185" y="230" width="5" height="10" as="geometry" />
        </mxCell>
        <mxCell id="wHHLx8FjQf187PXlfKUF-312" value="" style="shape=requiredInterface;html=1;verticalLabelPosition=bottom;sketch=0;strokeColor=#0F8B8D;fontColor=#143642;fillColor=#FAE5C7;rotation=-155;" vertex="1" parent="1">
          <mxGeometry x="187.5" y="368" width="10" height="20" as="geometry" />
        </mxCell>
        <mxCell id="wHHLx8FjQf187PXlfKUF-313" value="nginx pass_proxy ..." style="shape=note2;boundedLbl=1;whiteSpace=wrap;html=1;size=25;verticalAlign=top;align=center;strokeColor=#006EAF;fontColor=#ffffff;fillColor=#1ba1e2;" vertex="1" parent="1">
          <mxGeometry x="-520" y="88" width="180" height="62" as="geometry" />
        </mxCell>
        <mxCell id="wHHLx8FjQf187PXlfKUF-314" value="" style="endArrow=none;dashed=1;html=1;dashPattern=1 3;strokeWidth=2;rounded=0;strokeColor=#A8201A;fontColor=#143642;fillColor=#FAE5C7;entryX=0.147;entryY=0.99;entryDx=0;entryDy=0;entryPerimeter=0;" edge="1" parent="1" source="wHHLx8FjQf187PXlfKUF-287" target="wHHLx8FjQf187PXlfKUF-313">
          <mxGeometry width="50" height="50" relative="1" as="geometry">
            <mxPoint x="-540" y="260" as="sourcePoint" />
            <mxPoint x="-490" y="210" as="targetPoint" />
          </mxGeometry>
        </mxCell>
        <mxCell id="wHHLx8FjQf187PXlfKUF-315" value="GPU ? SSD ? ..." style="shape=note2;boundedLbl=1;whiteSpace=wrap;html=1;size=25;verticalAlign=top;align=center;strokeColor=#006EAF;fontColor=#ffffff;fillColor=#1ba1e2;" vertex="1" parent="1">
          <mxGeometry x="-220" y="90" width="180" height="62" as="geometry" />
        </mxCell>
        <mxCell id="wHHLx8FjQf187PXlfKUF-316" value="" style="endArrow=none;dashed=1;html=1;dashPattern=1 3;strokeWidth=2;rounded=0;strokeColor=#A8201A;fontColor=#143642;fillColor=#FAE5C7;entryX=0.245;entryY=0.988;entryDx=0;entryDy=0;entryPerimeter=0;" edge="1" parent="1" source="wHHLx8FjQf187PXlfKUF-282" target="wHHLx8FjQf187PXlfKUF-315">
          <mxGeometry width="50" height="50" relative="1" as="geometry">
            <mxPoint x="-170" y="260" as="sourcePoint" />
            <mxPoint x="-120" y="210" as="targetPoint" />
          </mxGeometry>
        </mxCell>
      </root>
    </mxGraphModel>
  </diagram>
</mxfile>
